<svg width="14" height="14" viewBox="0 0 14 14" fill="none" xmlns="http://www.w3.org/2000/svg">
<path fill-rule="evenodd" clip-rule="evenodd" d="M1.4 0C0.626801 0 0 0.626802 0 1.4V12.6C0 13.3732 0.626802 14 1.4 14H12.6C13.3732 14 14 13.3732 14 12.6V1.4C14 0.626801 13.3732 0 12.6 0H1.4ZM10.9562 5.13358C11.2295 4.86022 11.2295 4.417 10.9562 4.14364C10.6828 3.87027 10.2396 3.87027 9.96622 4.14364L5.73837 8.37148L4.03374 6.66687C3.76037 6.3935 3.31715 6.39351 3.04379 6.66687C2.77042 6.94024 2.77042 7.38346 3.04379 7.65682L5.2434 9.8564C5.51677 10.1298 5.95998 10.1298 6.23335 9.8564L10.9562 5.13358Z" fill="black"/>
</svg>
