<svg xmlns="http://www.w3.org/2000/svg" width="100" height="100"><path fill="#FFF" fill-rule="nonzero" d="M53.632 89.474c5.512 0 10.328-.594 14.448-1.783 4.12-1.189 7.342-2.844 9.666-4.965 2.323-2.12 3.485-4.573 3.485-7.355 0-1.973-.351-3.594-1.054-4.864-.702-1.27-1.506-2.377-2.411-3.323a26.541 26.541 0 0 1-2.391-2.857c-.69-.96-1.034-2.074-1.034-3.344 0-1.242.568-2.337 1.702-3.282 1.135-.946 2.601-1.851 4.398-2.716a419.74 419.74 0 0 0 5.694-2.796c2-1 3.897-2.189 5.694-3.566a16.875 16.875 0 0 0 4.397-5.026c1.135-1.972 1.702-4.35 1.702-7.133 0-3.971-.986-7.585-2.958-10.84-1.973-3.256-4.776-6.046-8.41-8.37-3.634-2.323-7.99-4.113-13.07-5.37C68.41 10.629 62.791 10 56.63 10c-8.186 0-15.622.966-22.31 2.898-6.686 1.932-12.441 4.674-17.264 8.227-4.823 3.553-8.538 7.808-11.145 12.766C3.304 38.849 2 44.367 2 50.446c0 5.81 1.236 11.112 3.708 15.907C8.18 71.15 11.7 75.27 16.266 78.714c4.566 3.445 10.01 6.1 16.332 7.964 6.322 1.864 13.334 2.796 21.034 2.796Zm0-5.268c-6.998 0-13.334-.804-19.007-2.412-5.674-1.607-10.558-3.904-14.651-6.89-4.093-2.985-7.234-6.545-9.423-10.678-2.188-4.134-3.282-8.727-3.282-13.78 0-5.295 1.161-10.098 3.485-14.407 2.323-4.31 5.66-8.018 10.01-11.125 4.35-3.107 9.551-5.498 15.603-7.173 6.052-1.675 12.807-2.513 20.264-2.513 7.24 0 13.563.892 18.967 2.675 5.403 1.783 9.605 4.262 12.604 7.437C91.2 28.514 92.7 32.222 92.7 36.464c0 2.432-.574 4.465-1.722 6.1-1.148 1.634-2.621 3.012-4.418 4.134a49.947 49.947 0 0 1-5.714 3.06 98.663 98.663 0 0 0-5.735 2.836c-1.81.973-3.282 2.128-4.417 3.465-1.135 1.338-1.702 3.006-1.702 5.005 0 1.703.35 3.148 1.053 4.337a17.528 17.528 0 0 0 2.432 3.222c.919.959 1.73 1.918 2.432 2.877.702.96 1.053 2.074 1.053 3.344 0 2.864-2.02 5.14-6.058 6.829-4.04 1.688-9.464 2.533-16.272 2.533Zm3.323-48.066c1.837 0 3.377-.628 4.62-1.884 1.243-1.257 1.864-2.79 1.864-4.6 0-1.81-.621-3.344-1.864-4.6-1.243-1.256-2.783-1.885-4.62-1.885-1.783 0-3.316.635-4.6 1.905-1.283 1.27-1.925 2.797-1.925 4.58s.642 3.31 1.925 4.58c1.284 1.27 2.817 1.904 4.6 1.904ZM36.49 42.868c2.296 0 4.255-.81 5.876-2.432 1.621-1.621 2.432-3.593 2.432-5.917 0-2.297-.817-4.249-2.452-5.856-1.635-1.608-3.587-2.412-5.856-2.412-2.35 0-4.35.804-5.998 2.412-1.648 1.607-2.472 3.56-2.472 5.856 0 2.324.824 4.296 2.472 5.917 1.648 1.621 3.647 2.432 5.998 2.432Zm39.028-4.256c1.378 0 2.566-.493 3.566-1.479 1-.986 1.5-2.195 1.5-3.627 0-1.405-.5-2.614-1.5-3.627-1-1.014-2.188-1.52-3.566-1.52-1.432 0-2.662.506-3.688 1.52-1.027 1.013-1.54 2.222-1.54 3.627 0 1.432.506 2.64 1.52 3.627 1.013.986 2.249 1.48 3.708 1.48Zm-53.861 16.9c1.702 0 3.168-.628 4.397-1.884 1.23-1.257 1.844-2.736 1.844-4.438 0-1.756-.601-3.235-1.803-4.438-1.203-1.202-2.682-1.803-4.438-1.803-1.73 0-3.209.608-4.438 1.823-1.23 1.216-1.844 2.689-1.844 4.418 0 1.702.615 3.181 1.844 4.438 1.23 1.256 2.709 1.884 4.438 1.884Zm28.653 18.724c2.134 0 4.08-.52 5.836-1.56a11.886 11.886 0 0 0 4.214-4.215c1.054-1.77 1.58-3.736 1.58-5.897 0-2.107-.526-4.046-1.58-5.816a12.053 12.053 0 0 0-4.214-4.235c-1.757-1.054-3.702-1.58-5.836-1.58-2.162 0-4.12.526-5.877 1.58a12.053 12.053 0 0 0-4.215 4.235c-1.053 1.77-1.58 3.709-1.58 5.816 0 2.161.527 4.127 1.58 5.897a11.886 11.886 0 0 0 4.215 4.215c1.756 1.04 3.715 1.56 5.877 1.56Zm0-3.77c-1.486 0-2.824-.35-4.013-1.053a7.88 7.88 0 0 1-2.837-2.857c-.702-1.202-1.053-2.533-1.053-3.992 0-1.54.365-2.891 1.094-4.053a8.088 8.088 0 0 1 2.857-2.756c1.175-.675 2.466-1.013 3.87-1.013a7.77 7.77 0 0 1 3.932.953 7.726 7.726 0 0 1 2.918 2.755c.73 1.176 1.094 2.547 1.094 4.114 0 1.459-.351 2.79-1.054 3.992a7.88 7.88 0 0 1-2.837 2.857c-1.189.703-2.512 1.054-3.971 1.054Z"/></svg>