<svg width="10" height="10" viewBox="0 0 10 10" fill="none" xmlns="http://www.w3.org/2000/svg">
<path fill-rule="evenodd" clip-rule="evenodd" d="M5 10C7.76142 10 10 7.76142 10 5C10 2.23858 7.76142 0 5 0C2.23858 0 0 2.23858 0 5C0 7.76142 2.23858 10 5 10ZM5.62519 5.1109L7.16678 6.65249C7.23492 6.72063 7.2732 6.81305 7.2732 6.90942C7.2732 7.00579 7.23492 7.09821 7.16678 7.16635C7.09864 7.23449 7.00622 7.27278 6.90985 7.27278C6.81348 7.27278 6.72106 7.23449 6.65292 7.16635L5.11133 5.62476L3.56974 7.16635C3.5016 7.23449 3.40918 7.27278 3.31281 7.27278C3.21644 7.27278 3.12402 7.23449 3.05588 7.16635C2.98774 7.09821 2.94945 7.00579 2.94945 6.90942C2.94945 6.81305 2.98774 6.72063 3.05588 6.65249L4.59747 5.1109L3.05588 3.56931C2.98774 3.50117 2.94945 3.40875 2.94945 3.31238C2.94945 3.21601 2.98774 3.12359 3.05588 3.05545C3.12402 2.98731 3.21644 2.94903 3.31281 2.94903C3.40918 2.94903 3.5016 2.98731 3.56974 3.05545L5.11133 4.59704L6.65292 3.05545C6.72106 2.98731 6.81348 2.94903 6.90985 2.94903C7.00622 2.94903 7.09864 2.98731 7.16678 3.05545C7.23492 3.12359 7.2732 3.21601 7.2732 3.31238C7.2732 3.40875 7.23492 3.50117 7.16678 3.56931L5.62519 5.1109Z" fill="white"/>
</svg>
