<svg width="20" height="20" viewBox="0 0 20 20" fill="none" xmlns="http://www.w3.org/2000/svg">
<path d="M13.8702 10.5744C15.0429 9.82502 15.8031 8.75529 15.9952 7.58415C16.0057 7.51609 15.9989 7.44709 15.9751 7.38109C15.9513 7.31509 15.9111 7.25338 15.8566 7.19948C15.8022 7.14558 15.7347 7.10056 15.6579 7.06697C15.5811 7.03338 15.4965 7.01188 15.409 7.00372C15.3215 6.99555 15.2329 7.00087 15.148 7.01937C15.0632 7.03787 14.9839 7.06918 14.9146 7.11153C14.8453 7.15388 14.7874 7.20643 14.7442 7.26618C14.7011 7.32593 14.6734 7.39172 14.6629 7.45977C14.5037 8.33368 13.9443 9.13349 13.0876 9.71215C12.2309 10.2908 11.1345 10.6094 10 10.6094C8.86547 10.6094 7.76908 10.2908 6.91239 9.71215C6.0557 9.13349 5.4963 8.33368 5.33705 7.45977C5.32655 7.39172 5.29893 7.32593 5.25575 7.26618C5.21258 7.20643 5.1547 7.15388 5.08542 7.11153C5.01614 7.06918 4.93682 7.03787 4.85198 7.01937C4.76715 7.00087 4.67846 6.99555 4.59098 7.00372C4.5035 7.01188 4.41895 7.03338 4.34214 7.06697C4.26534 7.10056 4.1978 7.14558 4.14336 7.19948C4.08893 7.25338 4.04867 7.31509 4.0249 7.38109C4.00112 7.44709 3.99428 7.51609 4.00478 7.58415C4.19518 8.75452 4.95291 9.82414 6.12309 10.5744L4.59098 11.7767C4.48185 11.8759 4.42482 12.0034 4.4313 12.1338C4.43777 12.2643 4.50727 12.388 4.62591 12.4803C4.74454 12.5726 4.90358 12.6266 5.07123 12.6317C5.23888 12.6367 5.4028 12.5924 5.53023 12.5075L7.26884 11.16C7.91486 11.414 8.61434 11.5755 9.33386 11.6368V13.4818C9.33386 13.6192 9.40405 13.751 9.52897 13.8482C9.6539 13.9454 9.82333 14 10 14C10.1767 14 10.3461 13.9454 10.471 13.8482C10.596 13.751 10.6661 13.6192 10.6661 13.4818V11.6368C11.3857 11.5755 12.0851 11.414 12.7312 11.16L14.4698 12.5075C14.5972 12.5924 14.7611 12.6367 14.9288 12.6317C15.0964 12.6266 15.2555 12.5726 15.3741 12.4803C15.4927 12.388 15.5622 12.2643 15.5687 12.1338C15.5752 12.0034 15.5182 11.8759 15.409 11.7767L13.8702 10.5744Z" fill="#FDFBFE"/>
</svg>
