<svg width="100" height="100" xmlns="http://www.w3.org/2000/svg"><path d="M49.5 98c.503 0 .965-.093 1.384-.279a3.35 3.35 0 0 0 1.133-.837l33.976-34.186c.671-.744 1.007-1.572 1.007-2.485 0-.947-.31-1.741-.931-2.384-.621-.642-1.384-.964-2.29-.964-.47 0-.915.077-1.334.229-.42.152-.78.38-1.083.684L66.06 73.045 52.596 87.666l.276-10.817V6.348c0-.981-.318-1.784-.956-2.41C51.28 3.313 50.473 3 49.5 3c-.973 0-1.77.313-2.39.938-.622.626-.932 1.429-.932 2.41v70.501l.271 10.876-13.51-14.68-15.301-15.267a2.453 2.453 0 0 0-1.057-.684 3.952 3.952 0 0 0-1.31-.229c-.939 0-1.719.322-2.34.964-.62.643-.931 1.437-.931 2.384 0 .913.352 1.741 1.057 2.485l33.926 34.186c.37.372.764.651 1.183.837.42.186.864.279 1.334.279Z" stroke="#979797" fill="#3E3E3E" fill-rule="nonzero"/></svg>