<svg xmlns="http://www.w3.org/2000/svg" width="18" height="18" fill="none"><path fill="#000" d="M7.667 3.8c0 .257-.079.508-.225.722-.147.214-.355.38-.598.479a1.365 1.365 0 0 1-1.453-.282 1.27 1.27 0 0 1-.289-1.417c.1-.237.271-.44.49-.583a1.358 1.358 0 0 1 1.684.162c.25.244.39.574.39.919ZM6.333 7.7c-.263 0-.521.076-.74.22-.22.142-.39.345-.492.583a1.27 1.27 0 0 0 .29 1.416c.186.182.424.306.682.356.259.05.527.024.77-.074.244-.098.452-.265.599-.479a1.277 1.277 0 0 0-.166-1.641 1.35 1.35 0 0 0-.943-.381Zm0 5.2c-.263 0-.521.076-.74.22-.22.142-.39.345-.492.583a1.27 1.27 0 0 0 .29 1.416c.186.182.424.306.682.356.259.05.527.024.77-.074.244-.098.452-.265.599-.479a1.277 1.277 0 0 0-.166-1.641 1.35 1.35 0 0 0-.943-.381Zm5.334-7.8c.263 0 .521-.076.74-.22.22-.142.39-.345.492-.583a1.27 1.27 0 0 0-.29-1.416 1.365 1.365 0 0 0-1.453-.282 1.327 1.327 0 0 0-.598.479 1.277 1.277 0 0 0 .166 1.641c.25.244.589.381.943.381Zm0 5.2c.263 0 .521-.076.74-.22.22-.142.39-.345.492-.583a1.27 1.27 0 0 0-.29-1.416 1.365 1.365 0 0 0-1.453-.282 1.327 1.327 0 0 0-.598.479 1.277 1.277 0 0 0 .166 1.641c.25.244.589.381.943.381Zm0 5.2c.263 0 .521-.076.74-.22.22-.142.39-.345.492-.582a1.27 1.27 0 0 0-.29-1.417 1.365 1.365 0 0 0-1.453-.282 1.326 1.326 0 0 0-.598.479 1.277 1.277 0 0 0 .166 1.641c.25.244.589.381.943.381Z"/></svg>