<svg width="12" height="9" viewBox="0 0 12 9" fill="none" xmlns="http://www.w3.org/2000/svg">
<path d="M11.6151 3.1752C10.3352 1.25166 8.29992 0 6 0C3.70008 0 1.6648 1.25166 0.384924 3.1752C0.149158 3.54907 0 4.00421 0 4.50271C0 5.0012 0.149158 5.45635 0.384924 5.81939C1.6648 7.74834 3.70008 9 6 9C8.29992 9 10.3352 7.74834 11.6151 5.81939C11.8508 5.44551 12 4.99037 12 4.49187C12 3.99338 11.8508 3.55448 11.6151 3.1752ZM10.7875 5.19085C9.64715 6.88682 7.88613 7.8838 6 7.8838C4.10425 7.8838 2.35285 6.88682 1.21251 5.19085C1.0826 4.99037 1.00561 4.74654 1.00561 4.50271C1.00561 4.26972 1.0826 4.01505 1.21251 3.81457C2.35285 2.12402 4.10425 1.12703 6 1.12703C7.88613 1.12703 9.64715 2.12402 10.7875 3.81999C10.8741 3.95545 10.9944 4.21011 10.9944 4.50813C10.9944 4.80614 10.8789 5.04997 10.7875 5.19085ZM6 1.96689C4.75862 1.96689 3.7482 3.09392 3.7482 4.50271C3.7482 5.9115 4.76343 7.03853 6 7.03853C7.23657 7.03853 8.2518 5.89524 8.2518 4.50271C8.2518 3.11017 7.24138 1.96689 6 1.96689ZM7.71078 3.45514C7.43652 3.45514 7.29912 3.91752 7.29912 3.60867C7.29912 3.29982 7.02486 4.03311 7.29912 4.03311C7.57338 4.03311 7.29912 3.29982 7.29912 3.60867C7.29912 3.91752 7.98503 3.45514 7.71078 3.45514Z" fill="#FDFBFE"/>
</svg>
