<svg width="14" height="14" viewBox="0 0 14 14" fill="none" xmlns="http://www.w3.org/2000/svg">
<path d="M11.4337 0.666992H2.56699C2.06308 0.666992 1.57981 0.86717 1.22349 1.22349C0.86717 1.57981 0.666992 2.06308 0.666992 2.56699V3.30799C0.666901 3.56952 0.720804 3.82825 0.825326 4.06799V4.10599C0.914803 4.30927 1.04154 4.49401 1.19899 4.65066L5.10032 8.52666V12.7003C5.10011 12.808 5.12733 12.9139 5.17941 13.0081C5.23149 13.1022 5.30672 13.1816 5.39799 13.2387C5.49878 13.3011 5.61508 13.334 5.73366 13.3337C5.8328 13.3331 5.93042 13.3092 6.01866 13.264L8.55199 11.9973C8.65644 11.9447 8.74427 11.8642 8.80575 11.7647C8.86723 11.6652 8.89997 11.5506 8.90032 11.4337V8.52666L12.7763 4.65066C12.9338 4.49401 13.0605 4.30927 13.15 4.10599V4.06799C13.2632 3.83013 13.3258 3.57132 13.3337 3.30799V2.56699C13.3337 2.06308 13.1335 1.57981 12.7772 1.22349C12.4208 0.86717 11.9376 0.666992 11.4337 0.666992ZM7.81732 7.81732C7.75862 7.8765 7.71219 7.94669 7.68067 8.02385C7.64915 8.10101 7.63317 8.18364 7.63366 8.26699V11.041L6.36699 11.6743V8.26699C6.36747 8.18364 6.3515 8.10101 6.31998 8.02385C6.28846 7.94669 6.24202 7.8765 6.18332 7.81732L2.82666 4.46699H11.174L7.81732 7.81732ZM12.067 3.20032H1.93366V2.56699C1.93366 2.39902 2.00038 2.23793 2.11916 2.11916C2.23793 2.00038 2.39902 1.93366 2.56699 1.93366H11.4337C11.6016 1.93366 11.7627 2.00038 11.8815 2.11916C12.0003 2.23793 12.067 2.39902 12.067 2.56699V3.20032Z" fill="white"/>
</svg>
