<svg xmlns="http://www.w3.org/2000/svg" width="100" height="100"><g fill="#3E3E3E" fill-rule="evenodd"><path d="M95.316 27.476c1.346 0 2.463-.298 3.352-.894.888-.595 1.332-1.354 1.332-2.275 0-.96-.444-1.739-1.332-2.334-.889-.595-2.006-.893-3.352-.893H5.764c-1.346 0-2.476.298-3.391.893S1 23.346 1 24.307c0 .921.458 1.68 1.373 2.275.915.596 2.045.894 3.391.894h89.552ZM82.209 53.669c1.297 0 2.386-.279 3.268-.836.882-.556 1.323-1.315 1.323-2.275s-.44-1.739-1.323-2.334c-.882-.595-1.971-.893-3.268-.893H18.791c-1.349 0-2.451.298-3.307.893-.856.595-1.284 1.373-1.284 2.334 0 .96.428 1.719 1.284 2.275.856.557 1.958.836 3.307.836h63.418ZM75.308 79.891c1.406 0 2.573-.288 3.5-.864.928-.576 1.392-1.325 1.392-2.247 0-.96-.464-1.738-1.392-2.334-.927-.595-2.094-.893-3.5-.893H32.376c-1.462 0-2.657.298-3.584.893-.928.596-1.392 1.374-1.392 2.334 0 .922.464 1.67 1.392 2.247.927.576 2.122.864 3.584.864h42.932Z"/></g></svg>