<svg width="10" height="8" viewBox="0 0 10 8" fill="none" xmlns="http://www.w3.org/2000/svg">
<path d="M2.6079 4.6685L4.14123 6.19516C4.20339 6.25732 4.2527 6.33112 4.28634 6.41233C4.31998 6.49354 4.33729 6.58059 4.33729 6.6685C4.33729 6.7564 4.31998 6.84345 4.28634 6.92466C4.2527 7.00588 4.20339 7.07967 4.14123 7.14183C4.07907 7.20399 4.00528 7.2533 3.92407 7.28694C3.84285 7.32058 3.75581 7.33789 3.6679 7.33789C3.57999 7.33789 3.49295 7.32058 3.41173 7.28694C3.33052 7.2533 3.25672 7.20399 3.19457 7.14183L0.5279 4.47516C0.467206 4.41176 0.419629 4.337 0.3879 4.25516C0.321221 4.09286 0.321221 3.9108 0.3879 3.7485C0.419629 3.66666 0.467206 3.5919 0.5279 3.5285L3.19457 0.86183C3.25654 0.799345 3.33028 0.749747 3.41151 0.715901C3.49275 0.682055 3.57989 0.664631 3.6679 0.664631C3.75591 0.664631 3.84304 0.682055 3.92428 0.715901C4.00552 0.749747 4.07926 0.799345 4.14123 0.86183C4.20372 0.923806 4.25331 0.997539 4.28716 1.07878C4.32101 1.16002 4.33843 1.24716 4.33843 1.33516C4.33843 1.42317 4.32101 1.51031 4.28716 1.59155C4.25331 1.67279 4.20372 1.74652 4.14123 1.8085L2.6079 3.33516L9.00123 3.33516C9.17804 3.33516 9.34761 3.4054 9.47264 3.53043C9.59766 3.65545 9.6679 3.82502 9.6679 4.00183C9.6679 4.17864 9.59766 4.34821 9.47264 4.47323C9.34761 4.59826 9.17804 4.6685 9.00123 4.6685H2.6079Z" fill="white"/>
</svg>
