<svg width="20" height="20" viewBox="0 0 20 20" fill="none" xmlns="http://www.w3.org/2000/svg">
<path d="M15.5418 2.08337H4.4585C3.82861 2.08337 3.22452 2.3336 2.77912 2.779C2.33372 3.22439 2.0835 3.82848 2.0835 4.45837V5.38462C2.08338 5.71154 2.15076 6.03495 2.28141 6.33462V6.38212C2.39326 6.63622 2.55168 6.86715 2.7485 7.06296L7.62516 11.908V17.125C7.62489 17.2596 7.65891 17.392 7.72402 17.5097C7.78912 17.6274 7.88316 17.7266 7.99724 17.798C8.12323 17.876 8.26861 17.9172 8.41683 17.9167C8.54076 17.916 8.66278 17.8861 8.77308 17.8296L11.9397 16.2463C12.0703 16.1805 12.1801 16.0798 12.2569 15.9555C12.3338 15.8311 12.3747 15.6879 12.3752 15.5417V11.908L17.2202 7.06296C17.417 6.86715 17.5754 6.63622 17.6872 6.38212V6.33462C17.8288 6.0373 17.907 5.71378 17.9168 5.38462V4.45837C17.9168 3.82848 17.6666 3.22439 17.2212 2.779C16.7758 2.3336 16.1717 2.08337 15.5418 2.08337ZM11.0214 11.0213C10.948 11.0953 10.89 11.183 10.8506 11.2794C10.8112 11.3759 10.7912 11.4792 10.7918 11.5834V15.0509L9.20849 15.8425V11.5834C9.2091 11.4792 9.18913 11.3759 9.14973 11.2794C9.11033 11.183 9.05228 11.0953 8.97891 11.0213L4.78308 6.83337H15.2172L11.0214 11.0213ZM16.3335 5.25004H3.66683V4.45837C3.66683 4.24841 3.75024 4.04705 3.8987 3.89858C4.04717 3.75011 4.24853 3.66671 4.4585 3.66671H15.5418C15.7518 3.66671 15.9532 3.75011 16.1016 3.89858C16.2501 4.04705 16.3335 4.24841 16.3335 4.45837V5.25004Z" fill="#CFCFD1"/>
</svg>
