<svg xmlns="http://www.w3.org/2000/svg" width="100" height="100"><path fill="#FFF" fill-rule="nonzero" d="M69.49 95c2.638 0 4.812-.823 6.525-2.47 1.712-1.646 2.636-3.775 2.772-6.387l2.977-60.939h5.871c.653 0 1.21-.238 1.672-.714.462-.476.693-1.027.693-1.653 0-.68-.231-1.245-.693-1.694a2.312 2.312 0 0 0-1.672-.674H68.35v-6.693c0-2.722-.836-4.864-2.507-6.43C64.17 5.783 61.866 5 58.93 5H42.988c-2.936 0-5.233.782-6.89 2.347-1.659 1.565-2.488 3.707-2.488 6.429v6.694H14.365c-.625 0-1.176.23-1.651.693A2.25 2.25 0 0 0 12 22.837c0 .653.238 1.21.714 1.673.475.463 1.026.694 1.65.694h5.872l3.018 60.939c.135 2.64 1.053 4.775 2.752 6.408C27.705 94.184 29.872 95 32.509 95h36.982Zm-6.116-74.53H38.543V14.06c0-1.333.422-2.394 1.265-3.183.842-.79 1.984-1.184 3.425-1.184h15.453c1.468 0 2.616.394 3.445 1.184.83.789 1.244 1.85 1.244 3.183v6.409Zm5.668 69.754H32.876c-1.25 0-2.33-.442-3.241-1.326-.911-.884-1.407-1.966-1.489-3.245L25.17 25.204h51.538l-2.895 60.45c-.055 1.305-.537 2.394-1.448 3.264-.91.871-2.018 1.306-3.323 1.306Z"/></svg>