<svg width="20" height="20" viewBox="0 0 20 20" fill="none" xmlns="http://www.w3.org/2000/svg">
<path d="M15.3333 5.666H12.6667V4.9995C12.6667 4.4692 12.456 3.96062 12.0809 3.58564C11.7058 3.21066 11.1971 3 10.6667 3H9.33333C8.8029 3 8.29419 3.21066 7.91912 3.58564C7.54405 3.96062 7.33333 4.4692 7.33333 4.9995V5.666H4.66667C4.48986 5.666 4.32029 5.73622 4.19526 5.86121C4.07024 5.98621 4 6.15573 4 6.3325C4 6.50927 4.07024 6.67879 4.19526 6.80379C4.32029 6.92878 4.48986 6.999 4.66667 6.999H5.33333V14.3305C5.33333 14.8608 5.54405 15.3694 5.91912 15.7444C6.29419 16.1193 6.8029 16.33 7.33333 16.33H12.6667C13.1971 16.33 13.7058 16.1193 14.0809 15.7444C14.456 15.3694 14.6667 14.8608 14.6667 14.3305V6.999H15.3333C15.5101 6.999 15.6797 6.92878 15.8047 6.80379C15.9298 6.67879 16 6.50927 16 6.3325C16 6.15573 15.9298 5.98621 15.8047 5.86121C15.6797 5.73622 15.5101 5.666 15.3333 5.666ZM8.66667 4.9995C8.66667 4.82273 8.7369 4.65321 8.86193 4.52821C8.98695 4.40322 9.15652 4.333 9.33333 4.333H10.6667C10.8435 4.333 11.013 4.40322 11.1381 4.52821C11.2631 4.65321 11.3333 4.82273 11.3333 4.9995V5.666H8.66667V4.9995ZM13.3333 14.3305C13.3333 14.5073 13.2631 14.6768 13.1381 14.8018C13.013 14.9268 12.8435 14.997 12.6667 14.997H7.33333C7.15652 14.997 6.98695 14.9268 6.86193 14.8018C6.7369 14.6768 6.66667 14.5073 6.66667 14.3305V6.999H13.3333V14.3305Z" fill="#FF4C71"/>
</svg>
