<svg xmlns="http://www.w3.org/2000/svg" width="100" height="100" viewBox="0 0 100 100"><path fill="#3E3E3E" fill-rule="nonzero" d="M49.5 98c.973 0 1.779-.313 2.416-.938.638-.626.956-1.429.956-2.41V24.151l-.276-10.808L66.06 27.955l15.302 15.267c.302.304.663.532 1.083.684.42.152.864.229 1.334.229.906 0 1.669-.322 2.29-.964.62-.643.931-1.437.931-2.384 0-.913-.336-1.741-1.007-2.485L52.017 4.116a3.35 3.35 0 0 0-1.133-.837A3.377 3.377 0 0 0 49.5 3c-.47 0-.914.093-1.334.279-.42.186-.814.465-1.183.837L13.057 38.302c-.705.744-1.057 1.572-1.057 2.485 0 .947.31 1.741.931 2.384.621.642 1.401.964 2.34.964.437 0 .873-.077 1.31-.229.436-.152.788-.38 1.057-.684L32.94 27.955l13.51-14.67-.272 10.866v70.501c0 .981.31 1.784.931 2.41.62.625 1.418.938 2.391.938Z"/></svg>