<svg width="14" height="14" viewBox="0 0 14 14" fill="none" xmlns="http://www.w3.org/2000/svg">
<path d="M5.80634 8.83301C5.86832 8.89549 5.94205 8.94509 6.02329 8.97894C6.10453 9.01278 6.19167 9.03021 6.27967 9.03021C6.36768 9.03021 6.45482 9.01278 6.53606 8.97894C6.6173 8.94509 6.69103 8.89549 6.75301 8.83301L9.47301 6.11301C9.59854 5.98747 9.66907 5.81721 9.66907 5.63967C9.66907 5.46214 9.59854 5.29188 9.47301 5.16634C9.34747 5.04081 9.17721 4.97028 8.99967 4.97028C8.82214 4.97028 8.65188 5.04081 8.52634 5.16634L6.27967 7.41967L5.47301 6.60634C5.34747 6.48081 5.17721 6.41028 4.99967 6.41028C4.82214 6.41028 4.65188 6.48081 4.52634 6.60634C4.40081 6.73188 4.33028 6.90214 4.33028 7.07967C4.33028 7.25721 4.40081 7.42747 4.52634 7.55301L5.80634 8.83301ZM12.9997 0.333008H0.999674C0.822863 0.333008 0.653294 0.403246 0.52827 0.52827C0.403246 0.653294 0.333008 0.822863 0.333008 0.999674V12.9997C0.333008 13.1765 0.403246 13.3461 0.52827 13.4711C0.653294 13.5961 0.822863 13.6663 0.999674 13.6663H12.9997C13.1765 13.6663 13.3461 13.5961 13.4711 13.4711C13.5961 13.3461 13.6663 13.1765 13.6663 12.9997V0.999674C13.6663 0.822863 13.5961 0.653294 13.4711 0.52827C13.3461 0.403246 13.1765 0.333008 12.9997 0.333008ZM12.333 12.333H1.66634V1.66634H12.333V12.333Z" fill="white"/>
</svg>
