<svg width="100" height="100" xmlns="http://www.w3.org/2000/svg"><path d="M78.31 92c4.547 0 7.966-1.145 10.256-3.434C90.856 86.276 92 82.904 92 78.449V21.55c0-4.486-1.145-7.866-3.434-10.14C86.276 9.137 82.857 8 78.309 8H21.644c-4.517 0-7.92 1.137-10.21 3.411C9.144 13.685 8 17.065 8 21.551V78.45c0 4.486 1.145 7.866 3.434 10.14C13.724 90.863 17.127 92 21.644 92H78.31Zm-.093-5.708H21.783c-2.63 0-4.633-.681-6.01-2.042-1.376-1.362-2.065-3.388-2.065-6.08V21.83c0-2.692.689-4.718 2.065-6.08 1.377-1.361 3.38-2.042 6.01-2.042h56.434c2.568 0 4.555.681 5.963 2.042 1.408 1.362 2.112 3.388 2.112 6.08v56.34c0 2.692-.704 4.718-2.112 6.08-1.408 1.361-3.395 2.042-5.963 2.042Zm-33.23-14.387c1.177 0 2.136-.541 2.878-1.624L70.42 35.01c.216-.34.41-.704.58-1.09a2.81 2.81 0 0 0 .255-1.138c0-.773-.294-1.407-.882-1.902-.587-.495-1.253-.743-1.995-.743-.99 0-1.826.526-2.506 1.578L44.849 64.944l-10.72-13.227c-.403-.526-.813-.89-1.23-1.09a3.222 3.222 0 0 0-1.416-.302c-.743 0-1.385.278-1.926.835a2.763 2.763 0 0 0-.812 1.996c0 .711.278 1.454.835 2.227l12.438 14.898c.433.557.89.967 1.369 1.23.48.262 1.013.394 1.6.394Z" fill="#3E3E3E" fill-rule="nonzero"/></svg>