<svg width="8" height="14" viewBox="0 0 8 14" fill="none" xmlns="http://www.w3.org/2000/svg">
<path d="M5.33333 6.33301H4.66667V3.66634H6C6.17681 3.66634 6.34638 3.73658 6.4714 3.8616C6.59643 3.98663 6.66667 4.1562 6.66667 4.33301C6.66667 4.50982 6.7369 4.67939 6.86193 4.80441C6.98695 4.92944 7.15652 4.99967 7.33333 4.99967C7.51014 4.99967 7.67971 4.92944 7.80474 4.80441C7.92976 4.67939 8 4.50982 8 4.33301C8 3.80257 7.78929 3.29387 7.41421 2.91879C7.03914 2.54372 6.53043 2.33301 6 2.33301H4.66667V0.999674C4.66667 0.822863 4.59643 0.653294 4.4714 0.52827C4.34638 0.403246 4.17681 0.333008 4 0.333008C3.82319 0.333008 3.65362 0.403246 3.5286 0.52827C3.40357 0.653294 3.33333 0.822863 3.33333 0.999674V2.33301H2.66667C1.95942 2.33301 1.28115 2.61396 0.781048 3.11406C0.280951 3.61415 0 4.29243 0 4.99967C0 5.70692 0.280951 6.3852 0.781048 6.88529C1.28115 7.38539 1.95942 7.66634 2.66667 7.66634H3.33333V10.333H2C1.82319 10.333 1.65362 10.2628 1.5286 10.1377C1.40357 10.0127 1.33333 9.84315 1.33333 9.66634C1.33333 9.48953 1.2631 9.31996 1.13807 9.19494C1.01305 9.06991 0.843478 8.99967 0.666667 8.99967C0.489856 8.99967 0.320287 9.06991 0.195262 9.19494C0.070238 9.31996 0 9.48953 0 9.66634C0 10.1968 0.210714 10.7055 0.585787 11.0806C0.960859 11.4556 1.46957 11.6663 2 11.6663H3.33333V12.9997C3.33333 13.1765 3.40357 13.3461 3.5286 13.4711C3.65362 13.5961 3.82319 13.6663 4 13.6663C4.17681 13.6663 4.34638 13.5961 4.4714 13.4711C4.59643 13.3461 4.66667 13.1765 4.66667 12.9997V11.6663H5.33333C6.04058 11.6663 6.71885 11.3854 7.21895 10.8853C7.71905 10.3852 8 9.70692 8 8.99967C8 8.29243 7.71905 7.61415 7.21895 7.11406C6.71885 6.61396 6.04058 6.33301 5.33333 6.33301ZM3.33333 6.33301H2.66667C2.31304 6.33301 1.97391 6.19253 1.72386 5.94248C1.47381 5.69243 1.33333 5.3533 1.33333 4.99967C1.33333 4.64605 1.47381 4.30691 1.72386 4.05687C1.97391 3.80682 2.31304 3.66634 2.66667 3.66634H3.33333V6.33301ZM5.33333 10.333H4.66667V7.66634H5.33333C5.68696 7.66634 6.02609 7.80682 6.27614 8.05687C6.52619 8.30691 6.66667 8.64605 6.66667 8.99967C6.66667 9.3533 6.52619 9.69244 6.27614 9.94248C6.02609 10.1925 5.68696 10.333 5.33333 10.333Z" fill="white"/>
</svg>
