<svg xmlns="http://www.w3.org/2000/svg" width="100" height="100" viewBox="0 0 100 100"><path fill="#3E3E3E" fill-rule="nonzero" d="M51 99c6.557 0 12.73-1.255 18.518-3.765 5.788-2.51 10.894-5.976 15.317-10.4 4.424-4.423 7.89-9.53 10.4-15.317C97.745 63.729 99 57.557 99 51s-1.255-12.73-3.765-18.518c-2.51-5.788-5.976-10.894-10.4-15.317-4.423-4.424-9.537-7.89-15.34-10.4C63.69 4.255 57.51 3 50.952 3c-6.557 0-12.73 1.255-18.518 3.765-5.788 2.51-10.886 5.976-15.294 10.4-4.408 4.423-7.866 9.53-10.376 15.317C4.255 38.271 3 44.443 3 51s1.255 12.73 3.765 18.518c2.51 5.788 5.976 10.894 10.4 15.317 4.423 4.424 9.53 7.89 15.317 10.4C38.271 97.745 44.443 99 51 99Zm0-8c-5.553 0-10.745-1.035-15.576-3.106-4.832-2.07-9.075-4.933-12.73-8.588-3.655-3.655-6.51-7.898-8.565-12.73-2.054-4.83-3.082-10.023-3.082-15.576 0-5.553 1.028-10.745 3.082-15.576 2.055-4.832 4.902-9.083 8.542-12.753 3.639-3.671 7.874-6.534 12.705-8.589C40.208 12.027 45.4 11 50.953 11c5.553 0 10.745 1.027 15.576 3.082 4.832 2.055 9.083 4.918 12.753 8.589 3.67 3.67 6.542 7.921 8.612 12.753C89.964 40.254 91 45.447 91 51c0 5.553-1.027 10.745-3.082 15.576-2.055 4.832-4.91 9.075-8.565 12.73-3.655 3.655-7.906 6.518-12.753 8.588C61.753 89.964 56.553 91 51 91Zm-.047-13.082c.627 0 1.153-.204 1.576-.612.424-.408.636-.941.636-1.6v-3.294c3.67-.377 6.753-1.592 9.247-3.647 2.494-2.055 3.74-4.855 3.74-8.4 0-3.2-1.034-5.773-3.105-7.718-2.07-1.945-5.145-3.278-9.223-4l-.66-.141v-13.13c1.695.314 3.114.965 4.26 1.953 1.145.989 1.952 2.267 2.423 3.836.533 1.537 1.49 2.306 2.87 2.306.816 0 1.483-.26 2-.777.518-.518.777-1.184.777-2a3.71 3.71 0 0 0-.07-.73 15.731 15.731 0 0 0-.165-.729c-.628-2.54-2.047-4.635-4.259-6.282-2.212-1.647-4.824-2.643-7.835-2.988v-3.247c0-.66-.212-1.193-.636-1.6-.423-.408-.949-.612-1.576-.612-1.475 0-2.212.737-2.212 2.212v3.247c-3.576.408-6.51 1.655-8.8 3.74-2.29 2.087-3.435 4.73-3.435 7.93 0 2.98 1.004 5.396 3.012 7.247 2.007 1.851 4.972 3.232 8.894 4.142l.33.094v13.93c-2.134-.315-3.82-1.02-5.06-2.119-1.239-1.098-2.047-2.431-2.423-4-.283-.784-.667-1.372-1.153-1.764-.486-.392-1.075-.589-1.765-.589-.784 0-1.435.26-1.953.777-.517.518-.776 1.184-.776 2 0 .25.023.494.07.73.047.235.102.478.165.729.659 2.73 2.18 4.917 4.565 6.564 2.384 1.648 5.16 2.628 8.33 2.942v3.388c0 .659.21 1.192.634 1.6.424.408.95.612 1.577.612ZM48.74 47.329l-.33-.094c-2.101-.627-3.646-1.42-4.635-2.376-.988-.957-1.482-2.126-1.482-3.506 0-1.443.573-2.714 1.718-3.812 1.145-1.098 2.721-1.82 4.73-2.165V47.33Zm4.424 19.718v-12.8l1.035.235c2.259.628 3.843 1.443 4.753 2.447.91 1.004 1.365 2.26 1.365 3.765 0 1.663-.589 3.067-1.765 4.212-1.177 1.145-2.973 1.859-5.388 2.141Z"/></svg>