<svg xmlns="http://www.w3.org/2000/svg" width="100" height="100"><path fill="#3E3E3E" fill-rule="nonzero" d="M82.237 93c4.937 0 8.632-1.207 11.084-3.62C95.774 86.966 97 83.346 97 78.519V21.48c0-4.827-1.226-8.447-3.679-10.86C90.87 8.206 87.174 7 82.237 7H17.81c-4.937 0-8.64 1.207-11.108 3.62C4.234 13.034 3 16.654 3 21.481V78.52c0 4.827 1.234 8.447 3.702 10.86C9.171 91.794 12.873 93 17.81 93h64.427Zm.613-7.52H17.102c-2.075 0-3.679-.554-4.81-1.66-1.132-1.105-1.698-2.732-1.698-4.88V34.887c0-2.149.566-3.776 1.698-4.881 1.131-1.106 2.735-1.659 4.81-1.659H82.85c2.107 0 3.727.553 4.858 1.659 1.132 1.105 1.698 2.732 1.698 4.881V78.94c0 2.149-.566 3.776-1.698 4.882-1.131 1.105-2.75 1.658-4.858 1.658ZM43.562 45.117c.817 0 1.391-.148 1.721-.443.33-.296.496-.849.496-1.659V40.26c0-.81-.165-1.37-.496-1.682-.33-.31-.904-.467-1.721-.467h-2.783c-.817 0-1.391.156-1.721.467-.33.312-.496.872-.496 1.682v2.756c0 .81.166 1.363.496 1.659.33.295.904.443 1.721.443h2.783Zm15.659 0c.849 0 1.43-.148 1.745-.443.314-.296.472-.849.472-1.659V40.26c0-.81-.158-1.37-.472-1.682-.315-.31-.896-.467-1.745-.467h-2.736c-.849 0-1.43.156-1.745.467-.314.312-.472.872-.472 1.682v2.756c0 .81.158 1.363.472 1.659.315.295.896.443 1.745.443h2.736Zm15.706 0c.817 0 1.383-.148 1.698-.443.314-.296.471-.849.471-1.659V40.26c0-.81-.157-1.37-.471-1.682-.315-.31-.88-.467-1.698-.467h-2.783c-.849 0-1.43.156-1.745.467-.315.312-.472.872-.472 1.682v2.756c0 .81.157 1.363.472 1.659.314.295.896.443 1.745.443h2.783ZM27.903 60.394c.818 0 1.384-.148 1.698-.444.315-.296.472-.849.472-1.658v-2.756c0-.81-.157-1.363-.472-1.659-.314-.296-.88-.444-1.698-.444H25.12c-.849 0-1.43.148-1.745.444-.314.296-.471.849-.471 1.659v2.756c0 .81.157 1.362.471 1.658.315.296.896.444 1.745.444h2.783Zm15.659 0c.817 0 1.391-.148 1.721-.444.33-.296.496-.849.496-1.658v-2.756c0-.81-.165-1.363-.496-1.659-.33-.296-.904-.444-1.721-.444h-2.783c-.817 0-1.391.148-1.721.444-.33.296-.496.849-.496 1.659v2.756c0 .81.166 1.362.496 1.658.33.296.904.444 1.721.444h2.783Zm15.659 0c.849 0 1.43-.148 1.745-.444.314-.296.472-.849.472-1.658v-2.756c0-.81-.158-1.363-.472-1.659-.315-.296-.896-.444-1.745-.444h-2.736c-.849 0-1.43.148-1.745.444-.314.296-.472.849-.472 1.659v2.756c0 .81.158 1.362.472 1.658.315.296.896.444 1.745.444h2.736Zm15.706 0c.817 0 1.383-.148 1.698-.444.314-.296.471-.849.471-1.658v-2.756c0-.81-.157-1.363-.471-1.659-.315-.296-.88-.444-1.698-.444h-2.783c-.849 0-1.43.148-1.745.444-.315.296-.472.849-.472 1.659v2.756c0 .81.157 1.362.472 1.658.314.296.896.444 1.745.444h2.783ZM27.903 75.716c.818 0 1.384-.156 1.698-.467.315-.312.472-.872.472-1.682v-2.756c0-.81-.157-1.363-.472-1.658-.314-.296-.88-.444-1.698-.444H25.12c-.849 0-1.43.148-1.745.444-.314.295-.471.848-.471 1.658v2.756c0 .81.157 1.37.471 1.682.315.311.896.467 1.745.467h2.783Zm15.659 0c.817 0 1.391-.156 1.721-.467.33-.312.496-.872.496-1.682v-2.756c0-.81-.165-1.363-.496-1.658-.33-.296-.904-.444-1.721-.444h-2.783c-.817 0-1.391.148-1.721.444-.33.295-.496.848-.496 1.658v2.756c0 .81.166 1.37.496 1.682.33.311.904.467 1.721.467h2.783Zm15.659 0c.849 0 1.43-.156 1.745-.467.314-.312.472-.872.472-1.682v-2.756c0-.81-.158-1.363-.472-1.658-.315-.296-.896-.444-1.745-.444h-2.736c-.849 0-1.43.148-1.745.444-.314.295-.472.848-.472 1.658v2.756c0 .81.158 1.37.472 1.682.315.311.896.467 1.745.467h2.736Z"/></svg>