<svg width="14" height="14" viewBox="0 0 14 14" fill="none" xmlns="http://www.w3.org/2000/svg">
<path d="M11.6663 1.66634H10.333V0.999674C10.333 0.822863 10.2628 0.653294 10.1377 0.52827C10.0127 0.403246 9.84315 0.333008 9.66634 0.333008C9.48953 0.333008 9.31996 0.403246 9.19494 0.52827C9.06991 0.653294 8.99967 0.822863 8.99967 0.999674V1.66634H4.99967V0.999674C4.99967 0.822863 4.92944 0.653294 4.80441 0.52827C4.67939 0.403246 4.50982 0.333008 4.33301 0.333008C4.1562 0.333008 3.98663 0.403246 3.8616 0.52827C3.73658 0.653294 3.66634 0.822863 3.66634 0.999674V1.66634H2.33301C1.80257 1.66634 1.29387 1.87705 0.918794 2.25213C0.543722 2.6272 0.333008 3.13591 0.333008 3.66634V11.6663C0.333008 12.1968 0.543722 12.7055 0.918794 13.0806C1.29387 13.4556 1.80257 13.6663 2.33301 13.6663H11.6663C12.1968 13.6663 12.7055 13.4556 13.0806 13.0806C13.4556 12.7055 13.6663 12.1968 13.6663 11.6663V3.66634C13.6663 3.13591 13.4556 2.6272 13.0806 2.25213C12.7055 1.87705 12.1968 1.66634 11.6663 1.66634ZM12.333 11.6663C12.333 11.8432 12.2628 12.0127 12.1377 12.1377C12.0127 12.2628 11.8432 12.333 11.6663 12.333H2.33301C2.1562 12.333 1.98663 12.2628 1.8616 12.1377C1.73658 12.0127 1.66634 11.8432 1.66634 11.6663V6.99967H12.333V11.6663ZM12.333 5.66634H1.66634V3.66634C1.66634 3.48953 1.73658 3.31996 1.8616 3.19494C1.98663 3.06991 2.1562 2.99967 2.33301 2.99967H3.66634V3.66634C3.66634 3.84315 3.73658 4.01272 3.8616 4.13775C3.98663 4.26277 4.1562 4.33301 4.33301 4.33301C4.50982 4.33301 4.67939 4.26277 4.80441 4.13775C4.92944 4.01272 4.99967 3.84315 4.99967 3.66634V2.99967H8.99967V3.66634C8.99967 3.84315 9.06991 4.01272 9.19494 4.13775C9.31996 4.26277 9.48953 4.33301 9.66634 4.33301C9.84315 4.33301 10.0127 4.26277 10.1377 4.13775C10.2628 4.01272 10.333 3.84315 10.333 3.66634V2.99967H11.6663C11.8432 2.99967 12.0127 3.06991 12.1377 3.19494C12.2628 3.31996 12.333 3.48953 12.333 3.66634V5.66634Z" fill="white"/>
</svg>
