<svg xmlns="http://www.w3.org/2000/svg" width="100" height="100"><path fill="#3E3E3E" fill-rule="nonzero" d="M86.55 89c4.512 0 7.882-1.109 10.109-3.326 2.227-2.217 3.341-5.542 3.341-9.977V23.303c0-4.435-1.114-7.76-3.341-9.977C94.432 11.109 91.062 10 86.55 10h-74.1c-4.484 0-7.846 1.109-10.088 3.326C.121 15.543-1 18.868-1 23.303v52.394c0 4.435 1.12 7.76 3.362 9.977C4.604 87.891 7.966 89 12.45 89h74.1Zm-.085-6.909h-73.93c-2.141 0-3.783-.565-4.926-1.695-1.142-1.13-1.713-2.81-1.713-5.042V23.646c0-2.232.571-3.912 1.713-5.042 1.143-1.13 2.785-1.695 4.926-1.695h73.93c2.113 0 3.748.565 4.904 1.695 1.157 1.13 1.735 2.81 1.735 5.042v51.708c0 2.232-.578 3.912-1.735 5.042-1.156 1.13-2.791 1.695-4.904 1.695ZM57.08 31.584c.771 0 1.407-.257 1.906-.772.5-.515.75-1.144.75-1.888s-.25-1.366-.75-1.867c-.5-.5-1.135-.75-1.906-.75H20.845c-.771 0-1.407.25-1.906.75-.5.5-.75 1.123-.75 1.867s.25 1.373.75 1.888c.5.515 1.135.772 1.906.772H57.08Zm24.93 27.979c1.77 0 3.155-.522 4.154-1.567 1-1.044 1.5-2.453 1.5-4.226v-8.711c0-1.774-.5-3.183-1.5-4.227-1-1.044-2.384-1.566-4.155-1.566H17.033c-1.77 0-3.156.522-4.155 1.566-1 1.044-1.5 2.453-1.5 4.227v8.71c0 1.774.5 3.183 1.5 4.227 1 1.045 2.384 1.567 4.155 1.567H82.01Zm-40.05-7.467H20.888c-.8 0-1.45-.257-1.95-.772-.499-.515-.749-1.159-.749-1.931 0-.715.25-1.323.75-1.824.5-.5 1.15-.751 1.949-.751H41.96c.771 0 1.407.25 1.906.751.5.5.75 1.109.75 1.824 0 .772-.25 1.416-.75 1.93-.5.516-1.135.773-1.906.773Zm15.12 20.469c.771 0 1.407-.243 1.906-.73.5-.486.75-1.101.75-1.845 0-.772-.25-1.416-.75-1.93-.5-.516-1.135-.773-1.906-.773H20.845c-.771 0-1.407.257-1.906.772-.5.515-.75 1.159-.75 1.931 0 .744.25 1.36.75 1.845.5.487 1.135.73 1.906.73H57.08Z"/></svg>