<svg width="13" height="14" viewBox="0 0 13 14" fill="none" xmlns="http://www.w3.org/2000/svg">
<path d="M3.81681 3.00004C3.62889 3.00004 3.44519 3.05869 3.28895 3.16859C3.1327 3.27848 3.01092 3.43468 2.93901 3.61743C2.8671 3.80018 2.84828 4.00128 2.88494 4.19528C2.9216 4.38929 3.01209 4.5675 3.14497 4.70737C3.27785 4.84724 3.44714 4.94249 3.63145 4.98108C3.81575 5.01967 4.00679 4.99987 4.18041 4.92417C4.35402 4.84847 4.50241 4.72028 4.60681 4.55581C4.71121 4.39134 4.76693 4.19797 4.76693 4.00017C4.76693 3.73492 4.66683 3.48053 4.48865 3.29297C4.31047 3.10541 4.0688 3.00004 3.81681 3.00004ZM12.4439 6.14045L7.11691 0.526378C7.05772 0.464582 6.98753 0.415692 6.91036 0.382511C6.83318 0.349331 6.75054 0.332512 6.66718 0.333019H0.966435C0.798442 0.333019 0.63733 0.403266 0.518542 0.528307C0.399753 0.653347 0.333018 0.822939 0.333018 0.999773V7.00056C0.332536 7.08831 0.348514 7.1753 0.380036 7.25653C0.411558 7.33777 0.458003 7.41165 0.516709 7.47396L5.85008 13.0814C6.20637 13.4559 6.68935 13.6663 7.19292 13.6663C7.69649 13.6663 8.17946 13.4559 8.53576 13.0814L12.4439 9.00082C12.7998 8.62577 12.9997 8.11738 12.9997 7.5873C12.9997 7.05723 12.7998 6.54884 12.4439 6.17379V6.14045ZM11.5508 8.02069L7.63631 12.1346C7.51763 12.2588 7.35709 12.3285 7.18975 12.3285C7.02241 12.3285 6.86187 12.2588 6.74319 12.1346L1.59985 6.72719V1.66653H6.40748L11.5508 7.08057C11.6095 7.14287 11.656 7.21676 11.6875 7.298C11.719 7.37923 11.735 7.46622 11.7345 7.55397C11.7338 7.72888 11.6678 7.8965 11.5508 8.02069Z" fill="white"/>
</svg>
