<svg width="100" height="100" xmlns="http://www.w3.org/2000/svg"><path d="M56.616 100c2.639 0 4.212-1.27 4.72-3.812l4.982-24.643 18.11-.005c1.388 0 2.521-.449 3.4-1.347.88-.898 1.32-2.041 1.32-3.43 0-1.118-.355-2.075-1.065-2.872-.711-.796-1.625-1.194-2.741-1.194l-17.237.001 5.424-26.833 17.751-.002c1.387 0 2.52-.448 3.4-1.346.88-.898 1.32-2.042 1.32-3.43 0-1.119-.355-2.076-1.066-2.872-.71-.796-1.624-1.194-2.74-1.194l-16.878.003L79.455 6.54c.033-.17.067-.399.101-.687.034-.288.05-.6.05-.94 0-1.22-.405-2.177-1.217-2.871C77.577 1.347 76.579 1 75.394 1c-1.455 0-2.529.364-3.222 1.093-.694.728-1.16 1.685-1.396 2.871l-4.464 22.06h-24.03L46.413 6.54c.034-.17.077-.399.127-.687.051-.288.076-.6.076-.94 0-1.22-.406-2.177-1.218-2.871C44.587 1.347 43.572 1 42.354 1c-1.42 0-2.487.364-3.197 1.093-.71.728-1.185 1.685-1.421 2.871l-4.452 22.06-16.712-.003c-1.388 0-2.521.465-3.4 1.397-.88.932-1.32 2.11-1.32 3.532 0 1.152.355 2.092 1.065 2.82.711.73 1.625 1.093 2.741 1.093l15.84.002-5.412 26.833H9.72c-1.387 0-2.52.465-3.4 1.397-.88.931-1.32 2.109-1.32 3.532 0 1.152.347 2.092 1.04 2.82.694.729 1.616 1.093 2.766 1.093l15.494.005-4.632 22.966c-.068.271-.119.55-.153.839-.033.288-.05.55-.05.788 0 1.253.389 2.21 1.167 2.871.778.66 1.776.991 2.994.991 2.64 0 4.213-1.27 4.72-3.812l4.964-24.643h23.991l-4.644 22.966c-.034.271-.068.55-.102.839-.033.288-.05.55-.05.788 0 1.253.389 2.21 1.167 2.871.778.66 1.76.991 2.944.991Zm2.478-37.302H35.09l5.411-26.833h24.024l-5.43 26.833Z" fill="#3E3E3E" fill-rule="nonzero"/></svg>