<svg width="14" height="10" viewBox="0 0 14 10" fill="none" xmlns="http://www.w3.org/2000/svg">
<path d="M1.44206 9.07878C1.81283 9.07878 2.02311 8.89616 2.15592 8.46452L2.68164 6.94824H5.66439L6.1901 8.47559C6.31738 8.90169 6.5332 9.07878 6.92057 9.07878C7.33561 9.07878 7.63444 8.80762 7.63444 8.42025C7.63444 8.29297 7.60677 8.16569 7.54036 7.98307L5.21615 1.67448C5.01693 1.1377 4.69596 0.905273 4.17025 0.905273C3.65006 0.905273 3.3291 1.14876 3.13542 1.68001L0.816732 7.98307C0.750326 8.15462 0.722656 8.30957 0.722656 8.42025C0.722656 8.82422 1.00488 9.07878 1.44206 9.07878ZM3.01921 5.81934L4.14258 2.41048H4.18131L5.31575 5.81934H3.01921Z" fill="white"/>
<path d="M10.0888 9.07878C10.847 9.07878 11.583 8.68587 11.9205 8.04948H11.9482V8.45898C11.9703 8.86849 12.2304 9.09538 12.6067 9.09538C12.9941 9.09538 13.2763 8.84635 13.2763 8.40365V4.94499C13.2763 3.76628 12.33 2.99707 10.8746 2.99707C9.75125 2.99707 8.8437 3.42871 8.54487 4.10937C8.484 4.23665 8.45079 4.3584 8.45079 4.48568C8.45079 4.81771 8.69428 5.03906 9.03185 5.03906C9.26427 5.03906 9.44689 4.95052 9.59077 4.76237C9.93387 4.25879 10.2825 4.07617 10.8193 4.07617C11.4999 4.07617 11.915 4.43034 11.915 5.0446V5.46517L10.36 5.55371C8.93224 5.64225 8.12983 6.26758 8.12983 7.30794C8.12983 8.36491 8.95437 9.07878 10.0888 9.07878ZM10.5094 8.03841C9.91173 8.03841 9.50776 7.73405 9.50776 7.2526C9.50776 6.78776 9.8896 6.48893 10.5537 6.44466L11.915 6.36165V6.8099C11.915 7.51823 11.2841 8.03841 10.5094 8.03841Z" fill="white"/>
</svg>
