<svg width="100" height="100" xmlns="http://www.w3.org/2000/svg"><path d="M52.27 73c2.86 0 5.35-.712 7.47-2.135 2.119-1.423 3.769-3.423 4.948-6 1.18-2.575 1.77-5.599 1.77-9.068 0-3.47-.59-6.493-1.77-9.07-1.18-2.576-2.83-4.575-4.948-5.999-2.12-1.423-4.589-2.135-7.408-2.135-2.526 0-4.776.645-6.75 1.933a11.753 11.753 0 0 0-4.4 5.173h-.156V29.774c0-.852-.246-1.527-.737-2.026-.49-.499-1.122-.748-1.894-.748-.794 0-1.436.25-1.927.748-.49.499-.736 1.174-.736 2.026V70.35c0 .81.235 1.45.705 1.917.47.467 1.08.7 1.832.7s1.373-.238 1.864-.716c.49-.478.736-1.112.736-1.901v-4.488h.094c1.023 2.202 2.521 3.943 4.494 5.22C47.431 72.361 49.701 73 52.27 73Zm33.23 0c2.047 0 3.963-.348 5.748-1.044 1.785-.696 3.325-1.652 4.62-2.867 1.295-1.216 2.245-2.623 2.85-4.223.084-.25.151-.504.204-.764.052-.26.078-.493.078-.7 0-.666-.214-1.211-.642-1.637-.428-.426-.976-.639-1.644-.639-.585 0-1.06.135-1.425.405-.366.27-.726.748-1.081 1.434-.814 1.766-1.937 3.121-3.367 4.067-1.43.945-3.2 1.418-5.309 1.418-3.07 0-5.528-1.132-7.376-3.397-1.848-2.265-2.772-5.34-2.772-9.225 0-3.865.93-6.945 2.788-9.24 1.858-2.296 4.312-3.444 7.36-3.444 2.005 0 3.733.467 5.184 1.402 1.45.935 2.594 2.317 3.43 4.145.354.665.71 1.127 1.064 1.387.355.26.825.39 1.41.39.668 0 1.216-.203 1.644-.608.428-.405.642-.95.642-1.636 0-.187-.026-.39-.078-.608a17.93 17.93 0 0 1-.141-.639c-.522-1.6-1.425-3.028-2.71-4.285-1.284-1.257-2.84-2.255-4.666-2.992-1.827-.738-3.795-1.107-5.904-1.107-3.111 0-5.826.717-8.144 2.15-2.317 1.435-4.113 3.445-5.387 6.031-1.273 2.587-1.91 5.615-1.91 9.085 0 3.49.642 6.519 1.926 9.085 1.284 2.566 3.09 4.55 5.418 5.952C79.64 72.3 82.37 73 85.5 73Zm-58.537 0c.772 0 1.393-.239 1.863-.717s.705-1.132.705-1.963V49.688c0-2.244-.522-4.197-1.566-5.859s-2.532-2.945-4.463-3.849c-1.932-.903-4.203-1.355-6.813-1.355-2.944 0-5.543.592-7.798 1.776-2.256 1.184-3.832 2.763-4.73 4.737a8.074 8.074 0 0 0-.407 1.122 3.947 3.947 0 0 0-.157 1.06c0 .685.225 1.23.674 1.636.449.405 1.007.608 1.675.608.502 0 .935-.094 1.3-.28.366-.188.663-.5.893-.936.856-1.787 1.968-3.106 3.335-3.958 1.368-.852 3.054-1.278 5.059-1.278 2.422 0 4.312.629 5.669 1.886 1.357 1.257 2.036 2.966 2.036 5.127v2.618l-9.992.56c-3.946.27-6.974 1.252-9.083 2.946C3.054 57.942 2 60.222 2 63.089c0 1.974.47 3.704 1.41 5.19.939 1.485 2.25 2.638 3.93 3.459 1.681.82 3.618 1.23 5.81 1.23 1.608 0 3.143-.27 4.604-.81a12.715 12.715 0 0 0 3.915-2.29 10.371 10.371 0 0 0 2.663-3.475h.094v4.051c.041.77.292 1.387.751 1.855.46.467 1.055.701 1.786.701Zm24.148-4.55c-1.984 0-3.733-.525-5.246-1.574-1.514-1.05-2.7-2.52-3.555-4.41-.856-1.89-1.284-4.103-1.284-6.638s.433-4.753 1.3-6.654c.866-1.901 2.056-3.376 3.57-4.425 1.514-1.05 3.252-1.574 5.215-1.574 2.025 0 3.78.514 5.262 1.542 1.482 1.029 2.625 2.489 3.43 4.38.803 1.89 1.205 4.123 1.205 6.7 0 2.597-.407 4.84-1.221 6.731-.815 1.891-1.963 3.35-3.446 4.38-1.482 1.028-3.226 1.542-5.23 1.542Zm-36.677.187c-2.088 0-3.78-.52-5.074-1.558-1.294-1.04-1.942-2.4-1.942-4.083 0-1.641.637-2.971 1.911-3.99 1.274-1.017 3.132-1.61 5.575-1.776l9.334-.592v3.241c0 1.642-.439 3.127-1.316 4.457s-2.057 2.379-3.539 3.148c-1.483.768-3.132 1.153-4.949 1.153Z" fill="#3E3E3E" fill-rule="nonzero"/></svg>